<svg width="20" height="20" viewBox="0 0 20 20" fill="none" xmlns="http://www.w3.org/2000/svg">
<path d="M4 4L4.69 4.06C5.32 1.72 7.46 0 10 0C11.4587 0 12.8576 0.579463 13.8891 1.61091C14.9205 2.64236 15.5 4.04131 15.5 5.5L15.42 6.45C15.88 6.16 16.42 6 17 6C17.7956 6 18.5587 6.31607 19.1213 6.87868C19.6839 7.44129 20 8.20435 20 9C20 9.79565 19.6839 10.5587 19.1213 11.1213C18.5587 11.6839 17.7956 12 17 12H4C2.93913 12 1.92172 11.5786 1.17157 10.8284C0.421427 10.0783 0 9.06087 0 8C0 6.93913 0.421427 5.92172 1.17157 5.17157C1.92172 4.42143 2.93913 4 4 4V4ZM4 6C3.46957 6 2.96086 6.21071 2.58579 6.58579C2.21071 6.96086 2 7.46957 2 8C2 8.53043 2.21071 9.03914 2.58579 9.41421C2.96086 9.78929 3.46957 10 4 10H17C17.2652 10 17.5196 9.89464 17.7071 9.70711C17.8946 9.51957 18 9.26522 18 9C18 8.73478 17.8946 8.48043 17.7071 8.29289C17.5196 8.10536 17.2652 8 17 8H13.5V5.5C13.5 4.57174 13.1313 3.6815 12.4749 3.02513C11.8185 2.36875 10.9283 2 10 2C9.07174 2 8.1815 2.36875 7.52513 3.02513C6.86875 3.6815 6.5 4.57174 6.5 5.5V6H4ZM16 16H2C1.73478 16 1.48043 15.8946 1.29289 15.7071C1.10536 15.5196 1 15.2652 1 15C1 14.7348 1.10536 14.4804 1.29289 14.2929C1.48043 14.1054 1.73478 14 2 14H16C16.7956 14 17.5587 14.3161 18.1213 14.8787C18.6839 15.4413 19 16.2044 19 17C19 17.7956 18.6839 18.5587 18.1213 19.1213C17.5587 19.6839 16.7956 20 16 20C15.17 20 14.42 19.66 13.88 19.12C13.5 18.73 13.5 18.1 13.88 17.71C14.27 17.32 14.9 17.32 15.29 17.71C15.47 17.89 15.72 18 16 18C16.2652 18 16.5196 17.8946 16.7071 17.7071C16.8946 17.5196 17 17.2652 17 17C17 16.7348 16.8946 16.4804 16.7071 16.2929C16.5196 16.1054 16.2652 16 16 16Z" fill="#0A84FF"/>
</svg>
