<svg width="21" height="21" viewBox="0 0 21 21" fill="none" xmlns="http://www.w3.org/2000/svg">
<path d="M11.7401 4.47007C14.1001 5.50007 15.3501 8.03007 14.9201 10.4601C16.1901 11.5601 17.0001 13.1901 17.0001 15.0001V15.1701C17.3101 15.0601 17.6501 15.0001 18.0001 15.0001C18.7957 15.0001 19.5588 15.3161 20.1214 15.8787C20.684 16.4414 21.0001 17.2044 21.0001 18.0001C21.0001 18.7957 20.684 19.5588 20.1214 20.1214C19.5588 20.684 18.7957 21.0001 18.0001 21.0001H5.00006C3.93919 21.0001 2.92178 20.5786 2.17163 19.8285C1.42149 19.0783 1.00006 18.0609 1.00006 17.0001C1.00006 15.9392 1.42149 14.9218 2.17163 14.1716C2.92178 13.4215 3.93919 13.0001 5.00006 13.0001H5.27006C4.00006 11.4501 3.60006 9.24007 4.50006 7.26007C5.72006 4.50007 8.97006 3.24007 11.7401 4.47007ZM10.9301 6.30007C9.16006 5.50007 7.09006 6.31007 6.31006 8.07007C5.85006 9.09007 5.93006 10.2201 6.41006 11.1301C7.50006 9.83007 9.16006 9.00007 11.0001 9.00007C11.7001 9.00007 12.3801 9.12007 13.0001 9.34007C12.9401 8.06007 12.1801 6.86007 10.9301 6.30007ZM12.5501 2.64007C12.0001 2.40007 11.4501 2.23007 10.8801 2.12007L13.3701 0.820068L14.2701 3.71007C13.7601 3.29007 13.1901 2.93007 12.5501 2.64007ZM5.09006 3.44007C4.60006 3.79007 4.17006 4.19007 3.80006 4.63007L3.91006 1.82007L6.87006 2.50007C6.25006 2.71007 5.65006 3.03007 5.09006 3.44007ZM17.0001 8.71007C16.9101 8.12007 16.7801 7.55007 16.5901 7.00007L18.9701 8.50007L16.9201 10.7301C17.0301 10.0801 17.0501 9.40007 17.0001 8.71007ZM2.04006 10.3001C2.11006 10.9001 2.24006 11.4701 2.43006 12.0001L0.0600586 10.5001L2.10006 8.28007C2.00006 8.93007 1.97006 9.61007 2.04006 10.3001ZM18.0001 17.0001H15.0001V15.0001C15.0001 13.9392 14.5786 12.9218 13.8285 12.1716C13.0783 11.4215 12.0609 11.0001 11.0001 11.0001C9.93919 11.0001 8.92178 11.4215 8.17163 12.1716C7.42149 12.9218 7.00006 13.9392 7.00006 15.0001H5.00006C4.46963 15.0001 3.96092 15.2108 3.58584 15.5859C3.21077 15.9609 3.00006 16.4696 3.00006 17.0001C3.00006 17.5305 3.21077 18.0392 3.58584 18.4143C3.96092 18.7894 4.46963 19.0001 5.00006 19.0001H18.0001C18.2653 19.0001 18.5196 18.8947 18.7072 18.7072C18.8947 18.5196 19.0001 18.2653 19.0001 18.0001C19.0001 17.7349 18.8947 17.4805 18.7072 17.293C18.5196 17.1054 18.2653 17.0001 18.0001 17.0001Z" fill="#64D2FF"/>
</svg>
