<svg width="28" height="31" viewBox="0 0 28 31" fill="none" xmlns="http://www.w3.org/2000/svg">
<g filter="url(#filter0_d_70_34)">
<path d="M19.7425 4.09L17.2125 6.03L18.1225 9.09L15.4925 7.28L12.8625 9.09L13.7725 6.03L11.2425 4.09L14.4325 4L15.4925 1L16.5525 4L19.7425 4.09ZM23.2425 11L21.6025 12.25L22.1925 14.23L20.4925 13.06L18.7925 14.23L19.3825 12.25L17.7425 11L19.8025 10.95L20.4925 9L21.1825 10.95L23.2425 11ZM20.9625 15.95C21.7925 15.87 22.6825 17.05 22.1525 17.8C21.8325 18.25 21.4925 18.67 21.0725 19.07C17.1625 23 10.8325 23 6.9325 19.07C3.0225 15.17 3.0225 8.83 6.9325 4.93C7.3325 4.53 7.7525 4.17 8.2025 3.85C8.9525 3.32 10.1325 4.21 10.0525 5.04C9.7825 7.9 10.7425 10.87 12.9425 13.06C15.1325 15.26 18.0925 16.22 20.9625 15.95ZM19.3225 17.97C16.4925 17.81 13.6925 16.64 11.5225 14.5C9.3525 12.31 8.1925 9.5 8.0325 6.68C5.2225 9.82 5.3325 14.64 8.3425 17.66C11.3625 20.67 16.1825 20.78 19.3225 17.97Z" fill="#FA00FF"/>
</g>
<defs>
<filter id="filter0_d_70_34" x="-2" y="0" width="32" height="32" filterUnits="userSpaceOnUse" color-interpolation-filters="sRGB">
<feFlood flood-opacity="0" result="BackgroundImageFix"/>
<feColorMatrix in="SourceAlpha" type="matrix" values="0 0 0 0 0 0 0 0 0 0 0 0 0 0 0 0 0 0 127 0" result="hardAlpha"/>
<feOffset dy="4"/>
<feGaussianBlur stdDeviation="2"/>
<feComposite in2="hardAlpha" operator="out"/>
<feColorMatrix type="matrix" values="0 0 0 0 0 0 0 0 0 0 0 0 0 0 0 0 0 0 0.25 0"/>
<feBlend mode="normal" in2="BackgroundImageFix" result="effect1_dropShadow_70_34"/>
<feBlend mode="normal" in="SourceGraphic" in2="effect1_dropShadow_70_34" result="shape"/>
</filter>
</defs>
</svg>
