<svg width="24" height="24" viewBox="0 0 24 24" fill="none" xmlns="http://www.w3.org/2000/svg">
<path d="M12.7401 5.47007C15.1001 6.50007 16.3501 9.03007 15.9201 11.4601C17.1901 12.5601 18.0001 14.1901 18.0001 16.0001V16.1701C18.3101 16.0601 18.6501 16.0001 19.0001 16.0001C19.7957 16.0001 20.5588 16.3161 21.1214 16.8787C21.684 17.4414 22.0001 18.2044 22.0001 19.0001C22.0001 19.7957 21.684 20.5588 21.1214 21.1214C20.5588 21.684 19.7957 22.0001 19.0001 22.0001H6.00006C4.93919 22.0001 3.92178 21.5786 3.17163 20.8285C2.42149 20.0783 2.00006 19.0609 2.00006 18.0001C2.00006 16.9392 2.42149 15.9218 3.17163 15.1716C3.92178 14.4215 4.93919 14.0001 6.00006 14.0001H6.27006C5.00006 12.4501 4.60006 10.2401 5.50006 8.26007C6.72006 5.50007 9.97006 4.24007 12.7401 5.47007ZM11.9301 7.30007C10.1601 6.50007 8.09006 7.31007 7.31006 9.07007C6.85006 10.0901 6.93006 11.2201 7.41006 12.1301C8.50006 10.8301 10.1601 10.0001 12.0001 10.0001C12.7001 10.0001 13.3801 10.1201 14.0001 10.3401C13.9401 9.06007 13.1801 7.86007 11.9301 7.30007ZM13.5501 3.64007C13.0001 3.40007 12.4501 3.23007 11.8801 3.12007L14.3701 1.82007L15.2701 4.71007C14.7601 4.29007 14.1901 3.93007 13.5501 3.64007ZM6.09006 4.44007C5.60006 4.79007 5.17006 5.19007 4.80006 5.63007L4.91006 2.82007L7.87006 3.50007C7.25006 3.71007 6.65006 4.03007 6.09006 4.44007ZM18.0001 9.71007C17.9101 9.12007 17.7801 8.55007 17.5901 8.00007L19.9701 9.50007L17.9201 11.7301C18.0301 11.0801 18.0501 10.4001 18.0001 9.71007ZM3.04006 11.3001C3.11006 11.9001 3.24006 12.4701 3.43006 13.0001L1.06006 11.5001L3.10006 9.28007C3.00006 9.93007 2.97006 10.6101 3.04006 11.3001ZM19.0001 18.0001H16.0001V16.0001C16.0001 14.9392 15.5786 13.9218 14.8285 13.1716C14.0783 12.4215 13.0609 12.0001 12.0001 12.0001C10.9392 12.0001 9.92178 12.4215 9.17163 13.1716C8.42149 13.9218 8.00006 14.9392 8.00006 16.0001H6.00006C5.46963 16.0001 4.96092 16.2108 4.58584 16.5859C4.21077 16.9609 4.00006 17.4696 4.00006 18.0001C4.00006 18.5305 4.21077 19.0392 4.58584 19.4143C4.96092 19.7894 5.46963 20.0001 6.00006 20.0001H19.0001C19.2653 20.0001 19.5196 19.8947 19.7072 19.7072C19.8947 19.5196 20.0001 19.2653 20.0001 19.0001C20.0001 18.7349 19.8947 18.4805 19.7072 18.293C19.5196 18.1054 19.2653 18.0001 19.0001 18.0001Z" fill="#64D2FF"/>
</svg>
